<svg width="20" height="21" viewBox="0 0 20 21" fill="none" xmlns="http://www.w3.org/2000/svg">
<g clip-path="url(#clip0_619_231)">
<path d="M4.88554 2.46325C4.88554 3.82067 3.79141 4.92796 2.44277 4.92796C1.09266 4.92796 0 3.82798 0 2.46325C0 1.10583 1.09266 0 2.44277 0C3.79141 0 4.88554 1.10583 4.88554 2.46325ZM4.52717 6.67154H0.399327V20.0132H4.52717V6.67154ZM11.127 6.67154H7.17034V20.0132H11.1285V13.0125C11.1285 11.1344 11.993 10.0197 13.6429 10.0197C15.1642 10.0197 15.8926 11.0919 15.8926 13.0125V20.0117H20V11.5629C20 7.99093 17.9785 6.26344 15.1437 6.26344C12.3148 6.26344 11.1212 8.47071 11.1212 8.47071V6.67154H11.127Z" fill="#BDBDBD"/>
</g>
<defs>
<clipPath id="clip0_619_231">
<rect width="20" height="21" fill="white"/>
</clipPath>
</defs>
</svg>
