<svg width="20" height="16" viewBox="0 0 20 16" fill="none" xmlns="http://www.w3.org/2000/svg">
<g clip-path="url(#clip0_619_241)">
<mask id="mask0_619_241" style="mask-type:luminance" maskUnits="userSpaceOnUse" x="0" y="0" width="20" height="16">
<path d="M20 0H0V16H20V0Z" fill="white"/>
</mask>
<g mask="url(#mask0_619_241)">
<path d="M19.5817 3.15592C19.4687 2.73031 19.2459 2.34186 18.9355 2.02947C18.6252 1.71708 18.2382 1.4917 17.8133 1.37592C16.2542 0.955077 10 0.955078 10 0.955078C10 0.955078 3.74583 0.955077 2.18583 1.37592C1.76117 1.49191 1.37441 1.71736 1.06423 2.02973C0.75405 2.34211 0.531326 2.73045 0.418333 3.15592C0 4.72592 0 8.00092 0 8.00092C0 8.00092 0 11.2759 0.418333 12.8459C0.531322 13.2716 0.754144 13.66 1.06449 13.9724C1.37484 14.2848 1.76181 14.5101 2.18667 14.6259C3.74583 15.0468 10 15.0468 10 15.0468C10 15.0468 16.2542 15.0468 17.8142 14.6259C18.2391 14.5103 18.6261 14.2849 18.9364 13.9725C19.2468 13.6601 19.4696 13.2716 19.5825 12.8459C20 11.2759 20 8.00092 20 8.00092C20 8.00092 20 4.72592 19.5817 3.15592ZM7.95419 10.9743V5.02761L13.1817 8.00092L7.95419 10.9743Z" fill="#BDBDBD"/>
</g>
</g>
<defs>
<clipPath id="clip0_619_241">
<rect width="20" height="16" fill="white"/>
</clipPath>
</defs>
</svg>
